<svg width="22" height="21" viewBox="0 0 22 21" fill="none" xmlns="http://www.w3.org/2000/svg">
<path fill-rule="evenodd" clip-rule="evenodd" d="M5.75 0C6.16421 0 6.5 0.33579 6.5 0.75V1.51272C7.16203 1.49999 7.8914 1.49999 8.69358 1.5H12.8064C13.6086 1.49999 14.338 1.49999 15 1.51272V0.75C15 0.33579 15.3358 0 15.75 0C16.1642 0 16.5 0.33579 16.5 0.75V1.57709C16.7599 1.59691 17.0061 1.62182 17.239 1.65313C18.4114 1.81076 19.3604 2.14288 20.1088 2.89124C20.8571 3.63961 21.1892 4.58855 21.3469 5.76098C21.3972 6.13567 21.431 6.54459 21.4537 6.99007C21.4837 7.07106 21.5 7.15861 21.5 7.25C21.5 7.31932 21.4906 7.38644 21.473 7.45016C21.5 8.2521 21.5 9.1628 21.5 10.1936V12.3064C21.5 14.1442 21.5 15.5998 21.3469 16.739C21.1892 17.9114 20.8571 18.8604 20.1088 19.6088C19.3604 20.3571 18.4114 20.6892 17.239 20.8469C16.0998 21 14.6442 21 12.8064 21H8.69359C6.85583 21 5.40019 21 4.26098 20.8469C3.08856 20.6892 2.13961 20.3571 1.39124 19.6088C0.64288 18.8604 0.31076 17.9114 0.15314 16.739C-2.96086e-05 15.5998 -1.95468e-05 14.1442 4.53202e-07 12.3064V10.1936C-9.5468e-06 9.1627 -1.95839e-05 8.2521 0.0270104 7.45017C0.00941042 7.38645 4.53202e-07 7.31932 4.53202e-07 7.25C4.53202e-07 7.15862 0.0163405 7.07105 0.0462705 6.99006C0.0689505 6.54458 0.10276 6.13566 0.15314 5.76098C0.31076 4.58856 0.64288 3.63961 1.39124 2.89124C2.13961 2.14288 3.08856 1.81076 4.26098 1.65313C4.4939 1.62182 4.74006 1.59691 5 1.57709V0.75C5 0.33579 5.33579 0 5.75 0ZM1.51309 8C1.50032 8.6527 1.5 9.396 1.5 10.25V12.25C1.5 14.1568 1.50159 15.5115 1.63976 16.5392C1.77502 17.5452 2.02869 18.1249 2.4519 18.5481C2.87511 18.9713 3.45476 19.225 4.46085 19.3602C5.48851 19.4984 6.84318 19.5 8.75 19.5H12.75C14.6568 19.5 16.0115 19.4984 17.0392 19.3602C18.0452 19.225 18.6249 18.9713 19.0481 18.5481C19.4713 18.1249 19.725 17.5452 19.8602 16.5392C19.9984 15.5115 20 14.1568 20 12.25V10.25C20 9.396 19.9997 8.6527 19.9869 8H1.51309ZM19.9183 6.5H1.58168C1.5977 6.31061 1.61685 6.13123 1.63976 5.96085C1.77502 4.95476 2.02869 4.37511 2.4519 3.9519C2.87511 3.52869 3.45476 3.27502 4.46085 3.13976C5.48851 3.00159 6.84318 3 8.75 3H12.75C14.6568 3 16.0115 3.00159 17.0392 3.13976C18.0452 3.27502 18.6249 3.52869 19.0481 3.9519C19.4713 4.37511 19.725 4.95476 19.8602 5.96085C19.8831 6.13123 19.9023 6.31061 19.9183 6.5ZM9.537 10.5571C9.8173 10.6732 10 10.9467 10 11.25V15.25C10 15.6642 9.6642 16 9.25 16C8.8358 16 8.5 15.6642 8.5 15.25V13.0607L8.28033 13.2803C7.98744 13.5732 7.51256 13.5732 7.21967 13.2803C6.92678 12.9874 6.92678 12.5126 7.21967 12.2197L8.71967 10.7197C8.9342 10.5052 9.2568 10.441 9.537 10.5571ZM12.75 12C12.6119 12 12.5 12.1119 12.5 12.25V14.25C12.5 14.3881 12.6119 14.5 12.75 14.5C12.8881 14.5 13 14.3881 13 14.25V12.25C13 12.1119 12.8881 12 12.75 12ZM11 12.25C11 11.2835 11.7835 10.5 12.75 10.5C13.7165 10.5 14.5 11.2835 14.5 12.25V14.25C14.5 15.2165 13.7165 16 12.75 16C11.7835 16 11 15.2165 11 14.25V12.25Z" fill="#525252"/>
</svg>
