<svg width="108" height="105" viewBox="0 0 108 105" fill="none" xmlns="http://www.w3.org/2000/svg">
<path d="M77.9223 67.9717C82.3423 67.9717 86.2353 70.2213 88.519 73.6383H53.8107C50.0534 73.6383 46.4501 75.1309 43.7933 77.7877C41.1366 80.4444 39.644 84.0478 39.644 87.805V110.472C39.644 111.39 39.729 112.281 39.899 113.146C23.2447 112.092 10.795 106.063 2.89567 94.9733C1.01303 92.3333 0.00079896 89.1718 0 85.9293V80.716C0.00150169 77.3365 1.34469 74.0958 3.73439 71.7061C6.12409 69.3164 9.36478 67.9732 12.7443 67.9717H77.9223ZM45.3107 0C49.0315 -5.5444e-08 52.7158 0.732862 56.1534 2.15675C59.5909 3.58063 62.7144 5.66765 65.3454 8.29864C67.9764 10.9296 70.0634 14.0531 71.4873 17.4906C72.9111 20.9282 73.644 24.6125 73.644 28.3333C73.644 32.0541 72.9111 35.7385 71.4873 39.176C70.0634 42.6136 67.9764 45.737 65.3454 48.368C62.7144 50.999 59.5909 53.086 56.1534 54.5099C52.7158 55.9338 49.0315 56.6667 45.3107 56.6667C37.7962 56.6667 30.5895 53.6816 25.276 48.368C19.9624 43.0545 16.9773 35.8478 16.9773 28.3333C16.9773 20.8189 19.9624 13.6122 25.276 8.29864C30.5895 2.98511 37.7962 0 45.3107 0ZM45.3107 87.805C45.3107 85.5507 46.2062 83.3887 47.8003 81.7946C49.3943 80.2005 51.5563 79.305 53.8107 79.305H99.144C101.398 79.305 103.56 80.2005 105.154 81.7946C106.748 83.3887 107.644 85.5507 107.644 87.805V110.472C107.644 112.726 106.748 114.888 105.154 116.482C103.56 118.076 101.398 118.972 99.144 118.972H53.8107C51.5563 118.972 49.3943 118.076 47.8003 116.482C46.2062 114.888 45.3107 112.726 45.3107 110.472V87.805ZM101.977 90.6383C100.474 90.6383 99.0331 90.0413 97.9704 88.9786C96.9077 87.9159 96.3107 86.4746 96.3107 84.9717H90.644C90.644 87.9775 91.8381 90.8601 93.9635 92.9856C96.0889 95.111 98.9716 96.305 101.977 96.305V90.6383ZM101.977 101.972C98.9716 101.972 96.0889 103.166 93.9635 105.291C91.8381 107.417 90.644 110.299 90.644 113.305H96.3107C96.3107 111.802 96.9077 110.361 97.9704 109.298C99.0331 108.235 100.474 107.638 101.977 107.638V101.972ZM56.644 84.9717C56.644 86.4746 56.047 87.9159 54.9843 88.9786C53.9216 90.0413 52.4802 90.6383 50.9773 90.6383V96.305C53.9831 96.305 56.8658 95.111 58.9912 92.9856C61.1166 90.8601 62.3107 87.9775 62.3107 84.9717H56.644ZM62.3107 113.305C62.3107 110.299 61.1166 107.417 58.9912 105.291C56.8658 103.166 53.9831 101.972 50.9773 101.972V107.638C52.4802 107.638 53.9216 108.235 54.9843 109.298C56.047 110.361 56.644 111.802 56.644 113.305H62.3107ZM86.394 99.1383C86.394 96.5083 85.3492 93.9859 83.4895 92.1262C81.6297 90.2665 79.1074 89.2217 76.4773 89.2217C73.8473 89.2217 71.3249 90.2665 69.4652 92.1262C67.6055 93.9859 66.5607 96.5083 66.5607 99.1383C66.5607 101.768 67.6055 104.291 69.4652 106.15C71.3249 108.01 73.8473 109.055 76.4773 109.055C79.1074 109.055 81.6297 108.01 83.4895 106.15C85.3492 104.291 86.394 101.768 86.394 99.1383Z" fill="#525252"/>
</svg>
